<svg width="1183" height="275" viewBox="0 0 1183 275" version="1.1" xmlns="http://www.w3.org/2000/svg" xmlns:xlink="http://www.w3.org/1999/xlink">
<g id="Canvas" fill="none">
<g id="Subtract">
<path fill-rule="evenodd" clip-rule="evenodd" d="M 0 1L 0 15L 0.0155029 15L 0.0010376 1L 0 1ZM 776.3 1L 774.1 1.90002L 774.7 23.2C 775 35 774.7 61.7 774.1 82.5C 772.9 117.5 772.7 120.6 771 122C 767.6 124.7 766.1 135.3 768.1 142.4C 770.4 150.7 775.5 152.6 787 149.5C 797.9 146.5 818.3 143.9 830.4 143.9C 841.59 143.9 844.806 143.9 846.531 145.504C 847.226 146.15 847.679 147.057 848.315 148.33L 848.4 148.5C 851.5 154.5 854.5 155.7 861.7 154.2C 867.9 152.8 874.7 151.8 889.9 149.9C 897.8 148.9 910.6 149.1 923.8 150.3C 925.3 150.4 926.3 151.5 927.1 153.8C 929.1 159.9 931.5 160.6 945.4 159.1C 952 158.4 961.6 157.4 966.5 156.9C 977.3 155.7 996.1 157.2 1002.5 159.6C 1003.3 160 1004.4 159 1005.3 157.3C 1006.6 154.7 1006.7 152 1005.7 146C 1005.58 145.184 1005.43 144.3 1005.31 143.566L 1005.31 143.562L 1005.31 143.553L 1005.3 143.547C 1005.22 143.03 1005.14 142.589 1005.1 142.3C 1004.9 140.2 1000.7 136.8 995 134.3C 992 133 988.7 131.4 987.7 130.9C 985.3 129.6 974 127.3 965.8 126.5C 962 126.1 959 125.4 959 125C 959 124.6 961.4 112.6 964.4 98.4C 973.2 56.8 975.3 43.8 974.8 33.5C 974.5 25.8 974 23.7 971.7 19.8C 968.1 13.5 961.1 10 952.4 10C 943.2 10 943 10.2 943 17.4C 943 20.7 942.5 28.7 942 35C 941.5 41.4 940.8 50.6 940.5 55.5C 940.2 60.5 938.8 74.4 937.5 86.5C 937.027 90.5852 936.521 94.9326 936.033 99.1112C 935.078 107.309 934.198 114.857 933.8 118.5C 932.9 126.8 932.3 128.9 930.3 130.7C 929.1 131.9 928 133.6 928 134.5C 928 136.9 926.1 136.3 925 133.6C 923.9 130.5 921.1 128.7 912.9 125.4C 904.7 122.2 893.6 120 885.1 120L 878.4 120L 883.2 91.8C 892.7 35.2 893.3 26 888.5 15.3C 885.1 7.79999 880.2 4.79999 870.1 4.20001C 869.469 4.16437 868.872 4.12726 868.308 4.0921L 868.304 4.09186C 864.443 3.85138 862.08 3.70428 860.627 4.78265C 858.336 6.48267 858.305 11.2283 858.226 23.4548C 858.219 24.6324 858.211 25.8796 858.2 27.2C 858.1 38.9 856.9 65.4 855.4 86C 853.1 120 852.6 123.6 850.9 124.9C 849.9 125.6 849 126.8 849 127.6C 849 130.1 847 130.1 845.8 127.5C 844.3 124.2 832.8 118.6 824.5 117.1C 821.2 116.5 813.9 115.7 808.3 115.3C 798.5 114.7 798.1 114.6 798.5 112.6C 800.5 103.7 806.9 48 807.7 33.5C 808.2 23.9 807.9 20.3 806.6 15.7C 804.7 9 799 2.59998 793.8 1.09998C 793.681 1.06598 793.792 1.03265 794.131 1L 776.3 1ZM 1128 0.0280762L 1183 0L 1128 0L 1128 0.0280762ZM 1183 57.2368L 1183 42.0416L 1181.6 40C 1177.8 34.4 1170 30.7 1161 30.3C 1154.9 29.9 1152.9 30.2 1150 31.8C 1148.1 32.9 1146.7 34.4 1146.9 35.2C 1147.9 38.4 1146.7 46.4 1142.1 68.1C 1135.2 100.6 1133.2 112.3 1131.8 128.2C 1130.4 145.2 1130.5 145.5 1140.8 145.5C 1148.7 145.4 1153.2 143.4 1156 138.7C 1159.4 133.1 1167.4 109.1 1181.9 61L 1183 57.2368ZM 1 187.72L 1 208.929C 1.03235 209.075 1.06567 209.266 1.09998 209.5C 3.90002 229 13.2 247.4 26.4 259.8C 37.5 270.1 47.6 274.2 61.6 274.1C 84.1 273.9 103.5 262.9 112.1 245.5C 114.6 240.4 115.6 236.7 116.3 229.5C 117.3 221.1 117.1 219.3 115.1 210.9C 112.7 201.2 106.6 187.7 102.2 182.5C 99.5 179.2 91.4 174 88.9 174C 83.6 174 26 207.8 26 211C 26 213.2 29.7 211.6 39.7 205C 51 197.5 56.2 195.3 46.6 202C 43.5 204.2 40.6 206 40.2 206C 39.8 206 37.7 207.5 35.5 209.4C 31.9 212.5 31.7 212.8 33.5 213.7C 34.6 214.3 39.1 215.8 43.5 217C 56.4 220.6 61.1 219.6 96.1 205.5C 97.6 204.9 97.6 205.4 96 211.3C 92.7 223.9 84.1 234.8 73.7 239.7C 57.9 247.3 46.4 246.7 33.3 237.9C 26 232.9 22 223.5 22 211C 22 189 35.5 172.2 55.5 169C 63.1 167.8 64.9 166.4 65.1 161.6C 65.6 150.8 63.4 140.7 59.6 136.4C 56.4 132.6 47.8 131.9 40 134.9C 21.1 142.1 4.5 164.6 1.09998 187.5C 1.06616 187.75 1.03284 187.822 1 187.72ZM 741 29.5C 737.4 10.3 736.5 8.90002 725.5 6.29999C 718.8 4.70001 698.7 3.70001 692.8 4.70001C 690.6 5 690 5.79999 689.6 8.29999C 688.4 16.6 683.8 43 682.8 47.5C 681.3 54.3 675.2 74.8 673.5 78.5C 672.7 80.1 670.8 84.9 669.2 89C 666.8 95 666.5 96.7 667.6 97.3C 668.3 97.7 669.2 99.7 669.5 101.8C 671.2 111.7 674.7 114.6 683.7 113.5C 686.054 113.186 688.962 112.872 690.974 112.655C 691.527 112.595 692.012 112.543 692.4 112.5C 692.953 112.435 693.973 112.327 695.297 112.188L 695.308 112.187C 698.051 111.898 702.094 111.471 706 111C 721.6 109.1 736 110.4 746.3 114.5C 747.6 115.1 748.3 114.5 749.1 112.1C 750.2 109.1 752 107.8 752 110.1C 752 110.9 752.4 110.9 753.3 110.2C 754 109.6 756.4 109.3 758.7 109.6L 762.9 110L 760.1 101.7C 753 81.3 745.7 53.5 741 29.5ZM 630.4 14.3C 628.4 11.2 625.4 9.70001 619 8.70001C 607.3 6.90002 585.2 7.20001 583.5 9.20001C 583.4 9.40002 582.5 16.2 581.6 24.5C 579 47.4 572.3 77.7 565.5 97.1C 564.1 100.9 564.1 101.5 565.5 103C 566.3 103.9 567 105.8 567 107.1C 567 110.6 571.6 116.9 574.8 117.7C 576.2 118 580.4 117.8 584 117.1C 610.6 112.2 633.8 111.1 642 114.4L 646.2 116L 647.2 113.2C 648.1 110.9 648.9 110.3 651.4 110.3C 653.1 110.3 655.1 110.8 655.9 111.4C 657 112.2 657.4 112.2 657.8 111.2C 658.1 110.2 658.5 110.2 659.6 111.1C 662.6 113.6 662.1 110.7 657.5 99.8C 650.6 83.6 640.5 52.5 635.9 33.2C 633.7 24 631.2 15.5 630.4 14.3ZM 1070 28.6C 1070 22.3 1064.8 15.5 1057.7 12.5C 1053.2 10.6 1043.7 9.79999 1039.3 10.9C 1034.1 12.2 1030.7 14.9 1031.6 16.8C 1032.8 19.3 1032.3 27.6 1030 43.5C 1022.3 98.2 1020.5 123.8 1024.3 126.2C 1026.3 127.5 1035.8 127.1 1039.3 125.6C 1045.2 123.2 1047.4 119.3 1051.8 103.3C 1054.1 95.2 1057.6 81.7 1059.6 73.5C 1061.5 65.2 1063.6 57.6 1064 56.5C 1065.3 53.5 1070 31.7 1070 28.6ZM 528.6 29.9C 526.6 22.8 523.9 19.3 519.2 18C 515.4 17 492.3 15.7 490.5 16.4C 490 16.7 487 17.4 483.8 18L 478.2 19.1L 477.5 29.8C 476.1 54.2 473.2 73 467.4 97.3C 464.9 107.4 464.1 112.4 464.8 113.3C 465.4 113.9 466.3 116.5 467 119C 468.4 124.3 471.2 127.7 475 128.5C 476.7 128.9 481.6 128.1 487.2 126.6C 492.3 125.2 498.5 123.8 501 123.5C 503.5 123.2 509.8 122.2 515 121.3C 524.1 119.8 540 119.9 544.2 121.5C 545.3 121.9 546.2 121.2 547.1 119.1C 547.8 117.5 548.9 116.4 549.5 116.8C 551.1 117.8 558 117.7 558 116.7C 558 116.2 558.7 116.3 559.5 117C 562.6 119.5 561.9 117.1 556.6 105.8C 546.2 83.8 535.3 54.1 528.6 29.9ZM 1128 38C 1128 31.1 1123.8 25.5 1116 22.2C 1108.3 18.8 1098.6 18.7 1092.7 21.9C 1090.7 22.9 1090.5 23.9 1090.5 30.3C 1090.5 34.3 1089.2 44.2 1087.7 52.5C 1080.6 92.1 1078.8 105 1078.2 118.9C 1077.8 132.1 1077.9 133.4 1079.5 134.7C 1082.5 136.8 1090 136.3 1095.9 133.5C 1100.2 131.4 1101.4 130.2 1103 126.4C 1105.2 121.3 1112.3 98.3 1116.9 81C 1118.7 74.7 1120.5 68.6 1121 67.5C 1122.6 64.2 1128 41.3 1128 38ZM 451.2 78.5C 446.1 58.6 435.1 43 421.5 36.5C 416.4 34.1 414 33.6 406 33.3C 399.3 33.1 395.3 33.5 392.5 34.5C 387.7 36.4 384 39.7 384 42.2C 384 43.7 384.9 44 390.3 44.2L 396.5 44.3L 391 44.9C 385.8 45.5 385.3 45.3 381.8 42.3C 374 35.5 362.8 33.8 357.2 38.4C 344.1 49.5 339.3 86.8 347 117.8C 353.8 144.6 374.8 165.8 399.5 170.6C 408.4 172.3 418.8 171.8 424.5 169.5C 426.3 168.7 430.8 165.1 434.4 161.5C 441.9 154 448.5 141.8 451.6 129.5C 454.5 118.5 454.3 90.5 451.2 78.5ZM 337.3 136C 337.6 100.2 324.7 71.9 303.3 61.3C 296.5 57.9 294.9 57.6 286.6 57.3C 281.6 57.2 276.3 57.4 274.9 57.9C 268.4 60 263 64.2 263 67.2C 263 69.4 261.7 69.5 260.1 67.6C 258.3 65.4 250.3 63 245.1 63C 238.4 63 234.7 65.7 231.2 73.2C 225.1 85.9 223.4 105.4 226.5 125C 228.7 138.6 230.4 144.1 236.7 156.8C 244.2 172.1 252.4 181 265 187.4C 276.7 193.4 284.8 195.3 297 194.8C 313.2 194.1 320.5 189.3 328.3 173.8C 335 160.6 337.2 151.4 337.3 136ZM 210.8 120.9C 202.9 105.9 190.3 94.8 177.5 91.5C 167.4 88.9 157.9 89.9 149.3 94.3C 145.6 96.2 142 100.5 142 103C 142 104.5 141.5 104.5 137.3 102.4C 131.7 99.5 122.5 99.2 117.9 101.6C 111.3 105 106.4 123.1 107.5 140C 108.6 157.6 113.3 174.9 120.8 189.4C 126.3 199.9 138.6 213.6 147.2 218.7C 159.7 226.3 177.2 228.8 193.2 225.5C 201.4 223.7 203.3 222.7 209 216.8C 224 201.2 227.4 164.3 216.5 135.4C 215.2 131.9 214.3 129 214.6 129C 214.9 129 213.2 125.3 210.8 120.9ZM 759.2 128.2C 754.9 123.9 749.1 121.6 740 120.5C 731.5 119.4 692.5 119.1 687 120.1C 684 120.6 678.6 122 675.2 123.1C 667.3 125.7 666 128.1 666 140C 666 147.4 666.2 148.2 668.9 151.2C 672.6 155.3 676.2 155.4 691.5 151.7C 705.2 148.5 733.9 145.7 749.9 146.2L 761.9 146.5L 763 142.1C 763.9 138.6 763.8 137.4 762.6 135.5C 761.5 133.8 761.4 133 762.2 132.8C 762.9 132.5 761.5 130.5 759.2 128.2ZM 654.1 125.2C 652.1 124.4 645.3 123.1 639 122.4C 613.7 119.5 586.2 122 572.3 128.4C 567.9 130.5 567 131.4 566.1 134.7C 565.5 136.8 565 139.6 564.9 141L 564.9 143.5L 563.8 141C 561.3 135 560.5 134 557.1 132.7C 555.1 131.9 548.6 130.7 542.5 130C 519.2 127.3 487.1 131.7 471.1 139.8C 466.8 141.9 465.7 145.3 466.4 153.7C 467.1 162.5 470 167.6 474.9 169.1C 478.4 170.1 479.7 169.9 488.9 166.6C 494.4 164.7 502.5 162.1 506.8 161C 519.2 157.9 545.3 153.9 555.1 153.7C 562.7 153.5 564 153.3 564 151.8C 564 148.7 565.6 149.1 566.9 152.6C 569.2 158.9 575.5 160.4 585.2 157.1C 599.7 152.1 627.5 147.8 648.5 147.4L 662.5 147.1L 662.8 142C 663 139 662.6 136.2 661.9 135.4C 661.3 134.6 661 133.7 661.3 133.3C 662.5 132.2 657.7 126.8 654.1 125.2ZM 1045.7 160.5C 1049.8 146.5 1049.7 145.7 1041.8 140C 1038.1 137.3 1036.9 137 1030.6 137.1C 1026.7 137.1 1021.4 137.8 1018.8 138.6L 1014.2 140L 1013.5 150.7C 1012.8 160.7 1013.3 171.8 1014.6 176.7C 1015.7 180.8 1026.1 181.3 1034.4 177.6C 1040.6 174.8 1042.3 172.2 1045.7 160.5ZM 1103 158.3C 1103 154.3 1099.2 150 1093.3 147.4C 1090.4 146.1 1086.3 145 1084.2 145.1C 1081.1 145.1 1070.2 147.5 1069.3 148.3C 1069.2 148.5 1068.6 152.8 1067.9 158C 1066.7 168.4 1067.1 182.5 1068.9 185.8C 1070.5 188.8 1076.5 189.5 1084 187.6C 1094 185 1095 183.8 1100.4 168.2C 1101.9 164.2 1103 159.7 1103 158.3ZM 1153.4 162.1C 1151.8 160.2 1148.8 157.9 1146.5 156.9C 1141.7 154.7 1132.5 154.5 1125.9 156.6L 1121.3 158L 1120 169.4C 1118.6 181.3 1119.1 194.5 1121 196.4C 1122.5 197.9 1138.8 197.8 1142.3 196.2C 1144.4 195.3 1146.3 192.6 1150.2 184.6C 1156.6 171.3 1157.3 166.7 1153.4 162.1ZM 713.4 55.5C 713.094 56.341 711.561 59.9293 709.694 64.2984L 709.615 64.4823L 709.581 64.5626C 709.04 65.8292 708.472 67.1573 707.9 68.5C 702.6 80.3 702.7 80.9 709 81C 710.9 81 715.4 81.7 719 82.5L 719.234 82.553C 724.387 83.7187 726.243 84.1386 726.563 83.6171C 726.743 83.3235 726.436 82.7318 725.955 81.8067L 725.9 81.7C 725.2 80.5 722.3 73.6 719.4 66.5C 715.4 56.5 714 54 713.4 55.5ZM 600.685 83.4505C 599.684 82.3666 600.92 79.2155 604.476 70.146L 604.576 69.8926L 604.64 69.7282L 604.668 69.6574L 605.2 68.3C 607.6 62.2 609.8 57.4 610.1 57.8C 611.1 59 623 85.3 622.7 85.6C 622.5 85.8 619.7 85.5 616.4 85C 613.2 84.4 608.1 84 605.1 84C 604.775 84 604.467 84.0024 604.176 84.0046C 602.386 84.0186 601.219 84.0276 600.685 83.4505ZM 502.3 79.2C 500 86.5 498.2 92.5 498.3 92.6C 498.4 92.7 503.8 93 510.2 93.3L 521.9 93.8L 515.7 82.1C 514.904 80.5966 514.18 79.2172 513.521 77.9601C 509.888 71.03 508.201 67.811 506.903 67.9612C 505.777 68.0916 504.945 70.7575 503.391 75.736L 503.389 75.7438L 503.376 75.7864L 503.362 75.8295C 503.042 76.8563 502.691 77.9805 502.3 79.2ZM 383.1 57.8C 384.7 54.6 386 51.4 386 50.5C 386 48.2 394.5 48.6 400 51.1C 410.2 55.7 419.6 70.4 423 87C 426.6 104.6 425.2 127.2 419.6 139.5C 416.7 145.8 411.4 152 408.9 152C 402.4 152 389.8 140 384.4 128.6C 379.1 117.3 376.9 107.3 376.3 91.8C 375.8 79.7 376 77.4 378 70.9C 379.2 66.9 381.5 61 383.1 57.8ZM 264.2 69.7C 263.6 69.9 263.3 70.6 263.6 71.1C 264 71.7 264.6 71.7 265.4 71.1C 266 70.6 269.3 69.9 272.5 69.7L 278.5 69.4L 272 69.3C 268.4 69.2 264.9 69.4 264.2 69.7ZM 258.1 116.7C 256.8 105.8 258.4 95.7 263.2 82.8L 266.5 74L 271 74.1C 280.3 74.1 287.1 78.2 295 88.7C 300.7 96.3 303.1 102.2 306 115.7C 310.2 134.9 309.8 150.5 304.8 163.8C 302.6 169.7 297.7 176 295.2 176C 294.4 176 291.2 174.8 288.2 173.4C 273 166.2 261.2 144 258.1 116.7ZM 146.8 104.7C 147.5 105 148.4 104.9 148.7 104.6C 149.1 104.3 148.5 104 147.4 104.1C 146.3 104.1 146 104.4 146.8 104.7ZM 144.6 107C 144.3 107 143.8 106.5 143.5 106C 143.2 105.4 143.4 105 143.9 105C 144.5 105 145 105.4 145 106C 145 106.5 144.8 107 144.6 107ZM 148.9 108.7C 146.5 109.1 146 110 143.9 117.8C 141.9 125.1 141.5 128.7 141.6 140.5C 141.6 153 141.9 155.4 144.4 163C 145.9 167.7 149.3 175.5 151.8 180.5C 159.4 195.1 173.8 208 182.4 208C 188.6 208 193.8 197.1 194.7 182.5C 195.3 172.1 194.1 162.9 190.5 150.9C 189.1 146.3 187.8 141.6 187.5 140.5C 185.3 130.8 172.3 114.7 163.6 111C 159 109 152.9 108 148.9 108.7Z" fill="white"/>
</g>
</g>
</svg>

